<?xml version="1.0" standalone="no"?>
<!DOCTYPE svg PUBLIC "-//W3C//DTD SVG 20010904//EN"
 "http://www.w3.org/TR/2001/REC-SVG-20010904/DTD/svg10.dtd">
<svg version="1.0" xmlns="http://www.w3.org/2000/svg"
 width="96.000000pt" height="96.000000pt" viewBox="0 0 96.000000 96.000000"
 preserveAspectRatio="xMidYMid meet">
<metadata>
Created by potrace 1.14, written by Peter Selinger 2001-2017
</metadata>
<g transform="translate(0.000000,96.000000) scale(0.100000,-0.100000)"
fill="#000000" stroke="none">
<path d="M702 928 c-7 -7 -12 -23 -12 -36 l0 -23 -32 24 c-25 19 -38 23 -56
16 -22 -8 -42 -45 -42 -77 1 -14 4 -13 19 6 26 30 38 28 61 -10 19 -31 19 -32
-1 -46 -21 -15 -69 -102 -69 -127 0 -37 -30 -74 -70 -86 -37 -11 -43 -10 -70
9 -37 28 -40 27 -40 -2 0 -43 -21 -88 -38 -81 -23 9 -32 -13 -32 -83 0 -82 18
-123 72 -159 110 -75 280 -68 367 15 53 51 66 101 50 196 -14 84 -7 135 16
116 12 -10 25 -10 60 0 62 17 57 33 -10 28 -30 -1 -55 0 -55 5 0 4 30 7 66 7
77 0 76 11 -3 49 -37 18 -53 33 -69 67 -11 24 -19 46 -16 49 3 3 18 5 34 5 22
0 33 -8 46 -30 22 -38 32 -38 32 1 0 20 -10 40 -29 60 -31 31 -51 35 -82 19
-15 -9 -19 -7 -19 5 0 25 -39 95 -53 95 -7 0 -18 -5 -25 -12z"/>
<path d="M170 790 c0 -14 11 -42 25 -63 17 -24 21 -37 13 -38 -46 -3 -105 5
-122 17 -32 22 -39 16 -19 -17 20 -36 56 -54 126 -64 26 -4 58 -16 70 -27 20
-18 20 -19 2 -13 -55 20 -82 21 -130 5 -29 -10 -67 -15 -89 -12 -46 5 -47 -15
-1 -37 23 -11 44 -12 98 -5 72 10 111 1 149 -33 17 -15 18 -14 18 12 0 23 2
26 15 15 12 -10 15 -10 15 3 0 10 6 14 14 11 11 -4 16 6 21 38 11 74 -23 126
-101 153 -28 9 -60 30 -76 48 l-27 32 -1 -25z"/>
<path d="M497 133 c-3 -21 -8 -49 -12 -62 -8 -23 -7 -24 28 -17 31 6 38 3 53
-19 9 -14 20 -25 25 -25 16 0 9 40 -12 69 -11 15 -21 42 -21 59 -1 28 -5 32
-28 32 -25 0 -28 -4 -33 -37z"/>
</g>
</svg>
